# xmcd CD database file
#
# Track frame offsets:
#	150
#	21131
#	36621
#	62635
#	83576
#	101508
#	117501
#	141037
#	159786
#	174995
#	193201
#	212973
#
# Disc length: 3777 seconds
#
# Revision: 1
# Processed by: cddbd v1.5.2PL0 Copyright (c) Steve Scherf et al.
# Submitted via: CDex 1.51
#
DISCID=a20ebf0c
DTITLE=Cootie Stark - Sugar Man
DYEAR=199
DGENRE=Blues
TTITLE0=Metal Bottoms
TTITLE1=Someday Baby
TTITLE2=Jigroo
TTITLE3=Padlock Blues
TTITLE4=Lonely Blues
TTITLE5=Cut Down That Old Pine Tree
TTITLE6=Howlin Wolf
TTITLE7=Leaving Here, Sure Don`t Want To Go
TTITLE8=Send You Back To Georgia
TTITLE9=Sandyland
TTITLE10=Blue Smokey Mountain
TTITLE11=Were You There, When They Crucified My Lord?
EXTD=YEAR: 199
EXTT0=
EXTT1=
EXTT2=
EXTT3=
EXTT4=
EXTT5=
EXTT6=
EXTT7=
EXTT8=
EXTT9=
EXTT10=
EXTT11=
PLAYORDER=
